<svg width="20" height="16" viewBox="0 0 20 16" fill="none" xmlns="http://www.w3.org/2000/svg">
<path opacity="0.4" fill-rule="evenodd" clip-rule="evenodd" d="M7.27893 0.664202C7.27893 0.29723 6.97581 0 6.60248 0H6.60159L5.15357 0.000871031C3.206 0.00261327 1.62109 1.55851 1.62109 3.46918V5.12184C1.62109 5.48793 1.92421 5.78604 2.29755 5.78604C2.67088 5.78604 2.97489 5.48793 2.97489 5.12184V3.46918C2.97489 2.28984 3.95267 1.33015 5.15446 1.3284L6.60248 1.32752C6.9767 1.32752 7.27893 1.0303 7.27893 0.664202ZM14.3944 0.000257707H12.9784C12.6051 0.000257707 12.302 0.297496 12.302 0.66446C12.302 1.03055 12.6051 1.32692 12.9784 1.32692H14.3944C15.6007 1.32692 16.582 2.28922 16.582 3.47206V5.1221C16.582 5.48819 16.8851 5.7863 17.2585 5.7863C17.6327 5.7863 17.9349 5.48819 17.9349 5.1221V3.47206C17.9349 1.55704 16.3474 0.000257707 14.3944 0.000257707ZM7.3232 3.32684H12.2334C12.7712 3.32684 13.2877 3.53865 13.6637 3.91608C14.0423 4.297 14.2521 4.80865 14.2512 5.34124V6.44824C14.2468 6.57811 14.141 6.68353 14.0086 6.68709H5.54629C5.41473 6.68273 5.30895 6.57722 5.30629 6.44824V5.34124C5.29651 4.23859 6.19963 3.33818 7.3232 3.32684Z" fill="white"/>
<path d="M18.8793 8.03711H0.67734C0.304003 8.03711 0 8.33436 0 8.70138C0 9.06743 0.304003 9.36379 0.67734 9.36379H1.62046V12.5314C1.62046 14.4421 3.20625 15.998 5.15383 15.9997L6.60184 16.0006C6.97607 16.0006 7.2783 15.7033 7.27918 15.3364C7.27918 14.9702 6.97607 14.673 6.60273 14.673L5.15561 14.6722C3.95293 14.6704 2.97425 13.7108 2.97425 12.5314V9.36379H5.30583V10.245C5.29694 11.3477 6.19917 12.249 7.32274 12.2595H12.233C13.3575 12.249 14.2597 11.3477 14.2508 10.245V9.36379H16.5824V12.5279C16.5824 13.7116 15.601 14.673 14.3948 14.673H12.9788C12.6046 14.673 12.3015 14.9702 12.3015 15.3364C12.3015 15.7033 12.6046 16.0006 12.9788 16.0006H14.3948C16.3468 16.0006 17.9353 14.4438 17.9353 12.5279V9.36379H18.8793C19.2526 9.36379 19.5558 9.06743 19.5558 8.70138C19.5558 8.33436 19.2526 8.03711 18.8793 8.03711Z" fill="white"/>
</svg>
